<svg xmlns="http://www.w3.org/2000/svg" viewBox="0 0 32 32" fill="none">
  <rect width="32" height="32" rx="8" fill="#0a0a0a"/>
  <path d="M8 9c0-.55.45-1 1-1h5c1.1 0 2 .9 2 2v13.5c-.5-.35-1.15-.5-2-.5H9c-.55 0-1-.45-1-1V9Zm16 0c0-.55-.45-1-1-1h-5c-1.1 0-2 .9-2 2v13.5c.5-.35 1.15-.5 2-.5h5c.55 0 1-.45 1-1V9Z" fill="#ff6b1a"/>
  <path d="M16 10.5c.3-.35.7-.5 1.2-.5H22c.55 0 1 .45 1 1v10.2c-.45-.25-.95-.35-1.5-.35h-4.3c-.6 0-1.15.15-1.7.45v-11.3l.3.5Z" fill="#ff8c42" opacity=".85"/>
  <circle cx="16" cy="16" r="1.6" fill="#ff6b1a"/>
</svg>
